<?xml version="1.0" encoding="utf-8"?>
<!-- Generator: Adobe Illustrator 27.5.0, SVG Export Plug-In . SVG Version: 6.00 Build 0)  -->
<svg version="1.1" id="Layer_1" xmlns="http://www.w3.org/2000/svg" xmlns:xlink="http://www.w3.org/1999/xlink" x="0px" y="0px"
	 viewBox="0 0 300 240" style="enable-background:new 0 0 300 240;" xml:space="preserve">
<style type="text/css">
	.st0{opacity:0;fill:#F2F2F2;}
	.st1{clip-path:url(#SVGID_00000057141517871899580780000012075480013839938952_);}
	.st2{opacity:0.5;fill:#3D4069;enable-background:new    ;}
	.st3{opacity:0.69;fill:#3D4069;enable-background:new    ;}
	.st4{fill:#5A5D7F;}
	.st5{fill:#F2F2F2;stroke:#B77865;stroke-width:0.25;stroke-miterlimit:10;}
	.st6{fill:#191847;}
	.st7{fill:#FDB194;}
	.st8{fill:#DBE1E7;}
	.st9{fill:#5B69CA;}
	.st10{fill:#41465A;}
	.st11{fill:#EFEBF5;stroke:#483F71;}
	.st12{fill:none;stroke:#2B274A;stroke-linecap:round;stroke-linejoin:round;}
	.st13{fill:none;stroke:#483F71;stroke-linecap:round;stroke-linejoin:round;}
	.st14{fill:#F1F6F9;}
	.st15{fill:none;stroke:#FFFFFF;stroke-width:0.5;stroke-linecap:round;}
	.st16{fill:#FD8E63;}
	.st17{fill:#D9DBDD;}
	.st18{fill:#FD8C64;}
	
		.st19{opacity:0.41;fill:none;stroke:#FFFFFF;stroke-width:0.5;stroke-linecap:round;stroke-linejoin:round;enable-background:new    ;}
	.st20{opacity:0.2;fill:none;stroke:#FFFFFF;stroke-width:0.75;stroke-linecap:round;enable-background:new    ;}
	.st21{opacity:0.2;fill:none;stroke:#FFFFFF;stroke-linecap:round;enable-background:new    ;}
	.st22{fill:#FFFFFF;}
	.st23{fill:none;stroke:#45215B;}
	.st24{fill:#21252B;}
	.st25{fill:#EFAF06;}
	.st26{fill:none;stroke:#FFFFFF;stroke-width:2;stroke-linecap:round;stroke-linejoin:round;}
	.st27{fill:none;stroke:#FFFFFF;stroke-width:2;stroke-linecap:round;}
	.st28{fill:none;stroke:#FFFFFF;}
	.st29{opacity:0.32;fill:#D9DBDD;enable-background:new    ;}
	.st30{fill:none;stroke:#DC9888;stroke-width:0.25;stroke-linecap:round;stroke-miterlimit:10;}
	.st31{fill:#4E5EAE;}
	.st32{opacity:0.35;fill:#4E5EAE;enable-background:new    ;}
	.st33{fill:none;stroke:#D0D0D0;stroke-linecap:round;stroke-miterlimit:10;stroke-dasharray:3,3;}
	.st34{fill:none;}
</style>
<g>
	<rect y="0" class="st0" width="300" height="240"/>
	<g>
		<defs>
			<rect id="SVGID_1_" x="25" y="20" width="250" height="200"/>
		</defs>
		<clipPath id="SVGID_00000047751640099126163790000010858951429238972061_">
			<use xlink:href="#SVGID_1_"  style="overflow:visible;"/>
		</clipPath>
		<g style="clip-path:url(#SVGID_00000047751640099126163790000010858951429238972061_);">
			<path class="st2" d="M25,205.2h249.5v3.9c0,6-4.9,10.9-10.8,10.9H35.8c-6,0-10.8-4.9-10.8-10.9V205.2L25,205.2z"/>
			<path class="st3" d="M263.6,220H35.8c-2.9,0-5.6-1.1-7.7-3.2c-2-2-3.2-4.8-3.2-7.7v-3.7c0,1.9,0.8,3.8,2.2,5.1
				c1.4,1.4,3.2,2.1,5.1,2.1h234.8c4,0,7.3-3.3,7.3-7.4v3.9c0,2.9-1.1,5.7-3.2,7.7C269.3,218.9,266.5,220,263.6,220L263.6,220z"/>
			<path class="st4" d="M41,55.6h216.9c5.6,0,10.1,4.5,10.1,10.1v130c0,5.6-4.5,10.1-10.1,10.1H41c-5.6,0-10.1-4.5-10.1-10.1v-130
				C30.9,60.1,35.4,55.6,41,55.6z"/>
			<path class="st5" d="M40,61.5h219.4c1.8,0,3.3,1.5,3.3,3.4v131.7c0,1.9-1.5,3.4-3.3,3.4H40c-1.8,0-3.3-1.5-3.3-3.4V64.8
				C36.7,63,38.2,61.5,40,61.5L40,61.5z"/>
			<path class="st6" d="M269.7,182.6l0.2-0.3l5,4l-2,2.3l-0.5-0.4l-0.5,1.3l-1.2,1.8l-7.6,9.2l-1-0.8c0,0,2.8-6.9,2.7-7.8
				c0,0,1-4.8,1-4.8L269.7,182.6L269.7,182.6z"/>
			<path class="st7" d="M233.3,86.4c-0.1-0.1,2.5,11.8,2.5,11.8h-7.3l1.3-8.8c0,0-3.5,2.8-5.6,1.8c-2.2-0.9-0.8-10-0.8-10
				s0.2-4.6,5.5-5.1c5.3-0.5,6.5,3.4,6.5,3.4S236.2,84.2,233.3,86.4L233.3,86.4z"/>
			<path class="st8" d="M226.2,125.5c-0.1,0.1-3.9,1.4-4.1,1.4c-0.4-0.4-3.1-2.3-3.2-2.9c-0.2-0.7,3.5-13.2,5.8-17.1
				c2.3-3.8,4.9-12.6,4.9-12.6l1.9-1C231.5,93.3,225.2,122.4,226.2,125.5L226.2,125.5z"/>
			<path class="st9" d="M231.5,93.6c0,0-9.1,31.4-4,38.5h18.4l3.1-7.3l-2.5-9.3c0,0,4.8,8.5,5.8,8.7s7,0,7,0s-6-25.2-24.6-32.1
				C234.6,91.9,231.5,93.6,231.5,93.6z"/>
			<path class="st6" d="M232,85.1l1.5,1.9c2.4-1.9,3.4-5.3,1.9-8.1c-1.2-2.6-3.1-3.6-4.7-3.9c-1.4-0.3-2.8-0.1-4.1,0.4
				c-0.9,0.4-2.2,0.9-2.6,1.2c0,0-0.1,1.9,0.8,2.2c0.4,0.1,0.8,0.2,1.2,0.2c1.3,0.2,2.5,0.7,3.4,1.8c0.2,0.2,0.3,0.4,0.3,0.5
				c-0.1,0.4-0.7,5.1-1.9,5.7s-4.6-1.8-4.7-1.1c-0.1,0.7,0,1.5,0,1.5s1.9,0.8,1.9,1.1c0,0.3-1,0.8-1.7,0.7c0,0.6,0.4,1.8,1,1.9
				c0.6,0.5,4.5,0,5.5-1.6c1-1.6,0.8-7.6,0.8-7.6S233.8,82.5,232,85.1L232,85.1z"/>
			<path class="st7" d="M203.2,116.8l-3.9-4.7c0,0-6.4-3.4-6.6-4.6c-0.1-0.3-0.2-0.5-0.3-0.8c0,0,0.1-0.5,0.4-0.5
				c0.3,0,4.7,0.7,4.7,0.7c0.6-0.2,0.9-0.7,0.8-1.3c-0.1-0.7-0.1-1.3,0-2c0,0,0.2-0.3,0.7,0.1c0.6,0.4,3.3,6,3.3,6l2.7,1.9
				L203.2,116.8L203.2,116.8z"/>
			<path class="st10" d="M247.2,133.8v29.8l22.9,18.7l-3.8,4.4c0,0-25.5-16.6-26.5-18.5c-1.1-1.8-12.4-36.4-12.4-36.4h19.9
				L247.2,133.8L247.2,133.8z"/>
			<path class="st7" d="M255.2,124.1l-8.2,14.1c0,0,0.1,4.6,0.7,4.7c-0.1,0,0,0.4,0,0.4c-0.4,0.2-0.8,0.2-1.2,0
				c-0.6-0.3-0.9-1.7-1.2-1.8c-0.3-0.1-0.8-0.8-4.7,0.6c-0.8,0.4-1.8,0.4-2.6,0c-0.6-0.3-1.1-0.7-1.6-1.1c0,0-0.8-0.6,0.7-1.3
				c1.5-0.6,6.8-3.3,6.8-3.6s1.9-4.3,1.9-4.3l4.3-10.4l1.9,2.4L255.2,124.1L255.2,124.1z"/>
			<path class="st10" d="M235.3,155.2l-15.6,43.4h-6l14-66.5L235.3,155.2L235.3,155.2z"/>
			<path class="st6" d="M219.8,198.9l0.4,6.1h-3v-0.6l-3.8,0.6h-11.7v-1.3c0,0,11.5-3.8,11.7-5.2c0,0,6.4,0.1,6.4,0.1V198.9
				L219.8,198.9z"/>
			<path class="st9" d="M218.9,124c0.2,0.4-11.1-0.8-18.4-9.8c0.1-0.2,1.9-4.4,1.9-4.4s9,3.9,11.8,3.7c0.3-0.2,1.9,0.3,3.8-1.4
				c1.9-1.8,10.9-17.6,11.6-17.8c0.1-0.1-3.4,11-4.9,12.8C223.2,108.9,218.7,123.7,218.9,124L218.9,124z"/>
			<path class="st11" d="M208,104.6c0,0-5.7-9.5-8.3-12.8c-0.9-1-1.1-0.7-2.1-0.4c-1,0.4-7.1,2.6-7.1,2.6c-0.4,0.4-0.6,1-0.6,1.6
				c0.2,0.8,9.9,16.1,10.4,16.3c0.3,0.1,3.7-1.5,6.5-2.6c1.7-0.7,3.2-1.4,2.9-1.8C209.2,106.7,208,104.6,208,104.6L208,104.6z"/>
			<path class="st12" d="M190,94.7c0,0-0.8,1.2-0.4,1.8c0.4,0.7,9.6,16.4,10.4,16.3c0.9-0.1,9.8-3.2,9.8-3.9c0-0.7,0-1.3,0-1.3"/>
			<path class="st13" d="M190.3,94.1c0,0-0.9,1-0.4,1.7c0.4,0.7,9.6,16.4,10.4,16.3c0.8-0.1,9.4-3,9.4-3.7c0-0.5-0.1-1-0.3-1.4"/>
			<path class="st14" d="M191.2,99.3l1.4,2.3L191.2,99.3z"/>
			<path class="st15" d="M191.2,99.3l1.4,2.3"/>
			<path class="st16" d="M62.8,124.1h7c0,0,1.1,0.1,2-1.8c0.4-0.8,0.3-1.9-0.3-2.6l0,0c-0.6-0.7-1.4-1.1-2.3-1.1h-6.4V124.1z"/>
			<path class="st16" d="M46.2,196.5l-1.3,3.2c0,0,0.6,0.4,5.8,0.5c0.1-1.2,0.1-2.4,0-3.7H46.2L46.2,196.5z"/>
			<path class="st17" d="M44.9,199.4c0,0.1-8.5,4.6-8.5,4.6v1.7h14.7l-0.4-5.8C50.7,200,45.3,200.4,44.9,199.4z"/>
			<path class="st16" d="M74.1,196.5l1.3,3.2c0,0-0.6,0.4-5.8,0.5c-0.1-1.2-0.1-2.4,0-3.7H74.1L74.1,196.5z"/>
			<path class="st17" d="M75.3,199.5c0,0.1,8.5,4.6,8.5,4.6v1.7H69.2l0.3-5.8C69.5,200,74.9,200.4,75.3,199.5L75.3,199.5z"/>
			<path class="st10" d="M46.8,123.9c0,0-3.2,11-3,14.7c0.1-0.1-5.4,57.1-5.4,57.1s6.2,2,20.9,0.9c0-0.1-0.9-57.4-0.9-57.4l4.1,57.4
				c0,0,12.5,1.1,20.4-1.7c-0.3,0-13.4-69.2-16-71C66.9,123.9,46.8,123.9,46.8,123.9L46.8,123.9z"/>
			<path class="st6" d="M60.1,94.4C60.1,94.4,60.1,94.3,60.1,94.4c-3.8-0.7-6.6-3.9-6.6-7.8V80c0-4.3,3.5-7.8,7.7-7.8
				c2.9,0,5.5,1.6,6.9,4.2c0.2,0.4,0.4,0.8,0.5,1.2c1.2,3.7,3.1,15,1.4,16.7L60.1,94.4L60.1,94.4z"/>
			<path class="st16" d="M54.6,98.9l2.8-13.3c-1.7-1.8-2.6-4.2-2.5-6.7c0.5-7.4,10.6-5.8,12.6-2c2,3.7,1.7,13.2-0.8,13.8
				c-1,0.3-3.2-0.4-5.4-1.7l1.4,9.9L54.6,98.9L54.6,98.9z"/>
			<path class="st6" d="M58.8,94.2h-10c-0.1-1-0.1-2.1,0.1-3.1c0.1-0.7,0.2-1.4,0.5-2.1c0.4-1,1-1.9,1.8-2.6
				c1.2-1.4,2.5-2.8,2.5-7.2l0.3-0.2c0.2-0.2,0.5-0.5,0.7-0.7v-0.3c0.5-1,1.1-1.8,1.8-2.7c0.6-0.7,1.3-1.3,2.1-1.8
				c0.8-0.5,1.7-0.8,2.7-0.8c1.5-0.1,3,0.3,4.2,1.1c0.8,0.6,1.5,1.4,2.1,2.3c-0.3,0.9-0.8,1.7-1.6,2.2c-0.8,0.6-1.7,1-2.6,1.4
				c-0.9,0.4-1.7,0.8-2.5,1.3c-0.8-0.7-2-0.5-2.7,0.3c-0.7,0.8-0.5,2,0.3,2.7c0.3,0.3,0.8,0.4,1.2,0.4h0.1c0.2,2,0.2,4,0.1,6.1
				C59.7,91.8,59.4,93.6,58.8,94.2L58.8,94.2z"/>
			<path class="st9" d="M73.7,120.7c1.6-0.5,3-3.4,2-7.7s-4.3-10.5-7.2-12.6c-0.1,0-6-2.7-6-2.7s-3.7,1.9-7.7,0
				c-0.1,0-2.4,1.2-4.6,2.4c-2.1,1.1-3.7,3.3-4.1,5.8c-0.7,4.5-1.5,11.9-0.2,17.7c0.1,0.5,0.5,0.8,0.9,0.9c1.9,0.5,7.5,1.5,16.1-0.2
				c-0.1,0.1,0-5.6,0-5.6h7.7"/>
			<path class="st18" d="M68.1,99.8l-2.8-1.7c0,0-0.5-1.6,0-1.8c0.7-0.6,1.3-1.3,1.8-2.1l-0.3-1.7c0,0-0.7-1.7,0.3-1.6
				c1,0.1,3.2,3.3,3.2,3.3v1.6c0,0,4.5,9.1,4.7,11.7c0.2,2.6,0.9,9.6-0.2,11.2c0,0.1-0.9,1.1-1.5,0.7c-0.6-0.3-3.4-4.5-3.7-6.3
				s-0.8-12.9-0.8-12.9L68.1,99.8L68.1,99.8z"/>
			<path class="st19" d="M50.1,108.5c0,0-0.9,6.6,0,8.2s2,1.7,2.1,1.6c2.6,0.5,8.5,0.3,8.5,0.3"/>
			<path class="st19" d="M66.9,106.3c0.9,2.8,1.5,5.7,1.8,8.6c0.1,1,0.1,2,0.1,3"/>
			<path class="st20" d="M48.1,132.4c0,0-7.4,48.4-5.7,63.7"/>
			<path class="st21" d="M53.1,129c0,0-1.6,65.2-1.7,67.6"/>
			<path class="st20" d="M67.3,129c0,0,12.7,58.3,11.8,67.2"/>
			<path class="st20" d="M64.1,136.2c0,0,4.1,56.2,4.9,59.8"/>
			<path class="st9" d="M59.6,60.2c7.2-6.5,7.6-17.7,1-24.8c-6.2-6.5-16.7-7.1-23.5-1.3c-7.4,6.3-8.1,17.5-1.7,24.7
				c5,5.6,13,7.3,19.9,4.2c1.2,1.5,2.8,2.6,4.5,3.4l0.7,0.3l-0.1-0.5C59.7,64.4,59.5,62.3,59.6,60.2L59.6,60.2z"/>
			<path class="st22" d="M46.2,38.3c-3.1-0.5-6.1,1.5-6.6,4.7c-0.5,3.1,1.5,6.1,4.7,6.7c1,0.2,1.9,0.1,2.8-0.2l5.6,8
				c0.1,0.2,0.4,0.3,0.6,0.2c0.1,0,0.1,0,0.1-0.1l1.8-1.3c0,0,0.1-0.1,0.1-0.1c0.1-0.2,0.1-0.5,0-0.6l-0.8-1.1l1.6-1.1
				c0,0,0.1-0.1,0.1-0.1c0.1-0.2,0.1-0.4,0-0.6L55,50.9c0,0-0.1-0.1-0.1-0.1c-0.2-0.1-0.5-0.1-0.6,0l-1.6,1.1l-3-4.2
				c2-2.5,1.6-6.1-0.9-8.1C48.1,39,47.2,38.5,46.2,38.3L46.2,38.3z M47.6,42.4c0.9,1.3,0.6,3.1-0.7,4s-3.1,0.6-4-0.7
				c-0.9-1.3-0.6-3.1,0.7-4c0.6-0.4,1.4-0.6,2.1-0.5C46.5,41.4,47.1,41.8,47.6,42.4z"/>
			<path class="st22" d="M89.4,116h117.9c1.4,0,2.5,1.1,2.5,2.5v21c0,1.4-1.1,2.5-2.5,2.5H89.4c-1.4,0-2.5-1.1-2.5-2.5v-21
				C86.9,117.1,88,116,89.4,116z"/>
			<path class="st23" d="M89.4,116.8h117.9c1.1,0,2.1,0.9,2.1,2.1v21c0,1.2-0.9,2.1-2.1,2.1H89.4c-1.1,0-2.1-0.9-2.1-2.1v-21
				C87.3,117.7,88.3,116.8,89.4,116.8z"/>
			<path class="st24" d="M102.8,126.9h1.3v0.7c0.5-0.6,1-0.8,1.6-0.8c0.3,0,0.6,0.1,0.9,0.2s0.4,0.3,0.6,0.6
				c0.2-0.3,0.5-0.5,0.7-0.6c0.3-0.1,0.5-0.2,0.8-0.2c0.4,0,0.7,0.1,1,0.2c0.3,0.2,0.5,0.4,0.6,0.7c0.1,0.2,0.1,0.6,0.1,1.1v3.3H109
				v-3c0-0.5,0-0.8-0.1-1c-0.1-0.2-0.3-0.3-0.6-0.3c-0.2,0-0.4,0.1-0.5,0.2c-0.2,0.1-0.3,0.3-0.4,0.5c-0.1,0.2-0.1,0.6-0.1,1.1v2.5
				h-1.4v-2.8c0-0.5,0-0.8-0.1-1c0-0.1-0.1-0.3-0.2-0.3c-0.1-0.1-0.2-0.1-0.4-0.1c-0.2,0-0.4,0.1-0.6,0.2c-0.2,0.1-0.3,0.3-0.4,0.5
				c-0.1,0.2-0.1,0.6-0.1,1.1v2.5h-1.4V126.9z M111.8,126.2v-1.3h1.4v1.3H111.8z M111.8,132.1v-5.2h1.4v5.2H111.8z M119.1,128.4
				l-1.4,0.2c0-0.3-0.2-0.5-0.3-0.6c-0.2-0.1-0.4-0.2-0.6-0.2c-0.3,0-0.6,0.1-0.8,0.4c-0.2,0.2-0.3,0.6-0.3,1.2
				c0,0.6,0.1,1.1,0.3,1.3c0.2,0.3,0.5,0.4,0.8,0.4c0.3,0,0.5-0.1,0.6-0.2c0.2-0.2,0.3-0.4,0.4-0.8l1.3,0.2
				c-0.1,0.6-0.4,1.1-0.8,1.4c-0.4,0.3-0.9,0.5-1.6,0.5c-0.8,0-1.4-0.2-1.8-0.7c-0.4-0.5-0.7-1.1-0.7-2c0-0.9,0.2-1.5,0.7-2
				c0.5-0.5,1.1-0.7,1.8-0.7c0.6,0,1.1,0.1,1.5,0.4C118.6,127.4,118.9,127.8,119.1,128.4z M121.5,124.9v2.6c0.4-0.5,1-0.8,1.6-0.8
				c0.3,0,0.6,0.1,0.9,0.2c0.3,0.1,0.4,0.3,0.6,0.4c0.1,0.2,0.2,0.4,0.3,0.6c0,0.2,0.1,0.6,0.1,1v3h-1.4v-2.7c0-0.5,0-0.9-0.1-1
				c-0.1-0.1-0.1-0.3-0.3-0.3c-0.1-0.1-0.3-0.1-0.5-0.1c-0.2,0-0.4,0.1-0.6,0.2c-0.2,0.1-0.3,0.3-0.4,0.5c-0.1,0.2-0.1,0.6-0.1,1
				v2.6h-1.4v-7.2H121.5z M129.2,130.4l1.4,0.2c-0.2,0.5-0.5,0.9-0.8,1.1c-0.4,0.3-0.9,0.4-1.4,0.4c-0.9,0-1.6-0.3-2-0.9
				c-0.3-0.5-0.5-1.1-0.5-1.8c0-0.9,0.2-1.5,0.7-2c0.4-0.5,1-0.7,1.7-0.7c0.8,0,1.4,0.3,1.8,0.8c0.4,0.5,0.7,1.3,0.6,2.3h-3.4
				c0,0.4,0.1,0.7,0.3,1c0.2,0.2,0.5,0.3,0.8,0.3c0.2,0,0.4-0.1,0.5-0.2C129.1,130.9,129.2,130.7,129.2,130.4z M129.3,129
				c0-0.4-0.1-0.7-0.3-0.9c-0.2-0.2-0.4-0.3-0.7-0.3c-0.3,0-0.5,0.1-0.7,0.3c-0.2,0.2-0.3,0.5-0.3,0.9H129.3z M132.8,128.5l-1.2-0.2
				c0.1-0.5,0.4-0.9,0.7-1.1c0.3-0.2,0.8-0.4,1.5-0.4c0.6,0,1.1,0.1,1.4,0.2c0.3,0.1,0.5,0.3,0.6,0.6c0.1,0.2,0.2,0.6,0.2,1.2l0,1.6
				c0,0.5,0,0.8,0.1,1c0,0.2,0.1,0.4,0.2,0.7H135c0-0.1-0.1-0.2-0.1-0.4c0-0.1,0-0.1,0-0.2c-0.2,0.2-0.5,0.4-0.8,0.5
				c-0.3,0.1-0.6,0.2-0.9,0.2c-0.5,0-1-0.1-1.3-0.4c-0.3-0.3-0.5-0.7-0.5-1.1c0-0.3,0.1-0.6,0.2-0.8c0.1-0.2,0.3-0.4,0.6-0.5
				c0.3-0.1,0.6-0.2,1.1-0.3c0.6-0.1,1.1-0.2,1.3-0.3v-0.1c0-0.3-0.1-0.5-0.2-0.6c-0.1-0.1-0.4-0.2-0.7-0.2c-0.2,0-0.4,0-0.6,0.1
				C133,128,132.9,128.2,132.8,128.5z M134.7,129.6c-0.2,0.1-0.5,0.1-0.8,0.2c-0.4,0.1-0.6,0.2-0.7,0.2c-0.2,0.1-0.3,0.3-0.3,0.5
				c0,0.2,0.1,0.4,0.2,0.5c0.1,0.1,0.3,0.2,0.5,0.2c0.2,0,0.5-0.1,0.7-0.2c0.2-0.1,0.3-0.3,0.3-0.5c0-0.1,0.1-0.3,0.1-0.7V129.6z
				 M137.4,132.1v-7.2h1.4v7.2H137.4z M141.5,132.1h-1.4v-5.2h1.3v0.7c0.2-0.3,0.4-0.6,0.6-0.7c0.2-0.1,0.4-0.2,0.6-0.2
				c0.3,0,0.6,0.1,0.9,0.3l-0.4,1.2c-0.2-0.1-0.4-0.2-0.6-0.2c-0.2,0-0.4,0.1-0.5,0.2c-0.1,0.1-0.2,0.3-0.3,0.6
				c-0.1,0.3-0.1,0.9-0.1,1.7V132.1z M144,126.2v-1.3h1.4v1.3H144z M144,132.1v-5.2h1.4v5.2H144z M146.5,129.4
				c0-0.5,0.1-0.9,0.3-1.3c0.2-0.4,0.5-0.8,1-1c0.4-0.2,0.9-0.3,1.4-0.3c0.8,0,1.4,0.3,1.9,0.8c0.5,0.5,0.8,1.2,0.8,1.9
				c0,0.8-0.3,1.4-0.8,2c-0.5,0.5-1.1,0.8-1.9,0.8c-0.5,0-0.9-0.1-1.4-0.3c-0.4-0.2-0.8-0.5-1-0.9
				C146.6,130.5,146.5,130,146.5,129.4z M147.9,129.5c0,0.5,0.1,0.9,0.4,1.2c0.2,0.3,0.5,0.4,0.9,0.4c0.4,0,0.7-0.1,0.9-0.4
				c0.2-0.3,0.4-0.7,0.4-1.2c0-0.5-0.1-0.9-0.4-1.2c-0.2-0.3-0.5-0.4-0.9-0.4c-0.4,0-0.7,0.1-0.9,0.4
				C148,128.6,147.9,129,147.9,129.5z M160.9,132h1c-0.3,0.7-0.8,1.2-1.5,1.6c-0.8,0.4-1.7,0.6-2.8,0.6c-1.1,0-2-0.2-2.8-0.5
				c-0.8-0.4-1.4-0.9-1.7-1.6c-0.4-0.7-0.6-1.5-0.6-2.3c0-0.9,0.2-1.8,0.7-2.6c0.4-0.8,1-1.4,1.8-1.8c0.8-0.4,1.6-0.6,2.6-0.6
				c0.8,0,1.5,0.2,2.2,0.5c0.6,0.3,1.1,0.8,1.5,1.4c0.3,0.6,0.5,1.2,0.5,1.9c0,0.8-0.3,1.6-0.8,2.3c-0.6,0.8-1.5,1.3-2.5,1.3
				c-0.3,0-0.5,0-0.6-0.1c-0.1-0.1-0.2-0.2-0.3-0.4c-0.4,0.4-0.8,0.6-1.3,0.6c-0.5,0-1-0.2-1.3-0.6c-0.4-0.4-0.5-0.9-0.5-1.5
				c0-0.8,0.2-1.5,0.6-2.1c0.5-0.8,1.2-1.2,2-1.2c0.6,0,1,0.2,1.3,0.7l0.1-0.5h1.3l-0.7,3.5c0,0.2-0.1,0.4-0.1,0.4
				c0,0.1,0,0.1,0.1,0.2c0,0,0.1,0.1,0.1,0.1c0.2,0,0.4-0.1,0.6-0.3c0.3-0.2,0.6-0.6,0.8-1c0.2-0.4,0.3-0.8,0.3-1.3
				c0-0.8-0.3-1.5-0.9-2c-0.6-0.5-1.4-0.8-2.4-0.8c-0.9,0-1.6,0.2-2.2,0.5c-0.6,0.4-1.1,0.9-1.4,1.5c-0.3,0.7-0.5,1.3-0.5,2
				c0,0.7,0.2,1.3,0.5,1.9c0.3,0.6,0.8,1,1.5,1.2c0.6,0.3,1.3,0.4,2.2,0.4c0.8,0,1.4-0.1,2-0.3C160.1,132.7,160.6,132.4,160.9,132z
				 M155.6,130c0,0.4,0.1,0.7,0.2,0.9c0.2,0.2,0.4,0.3,0.6,0.3c0.2,0,0.4,0,0.5-0.1c0.1-0.1,0.2-0.2,0.4-0.3
				c0.2-0.2,0.3-0.5,0.4-0.9c0.1-0.4,0.2-0.7,0.2-1.1c0-0.4-0.1-0.6-0.3-0.8c-0.2-0.2-0.4-0.3-0.6-0.3c-0.3,0-0.5,0.1-0.8,0.3
				c-0.2,0.2-0.4,0.5-0.5,0.9C155.7,129.3,155.6,129.6,155.6,130z M162.1,132.1V131l1.9-2.2c0.3-0.4,0.6-0.6,0.7-0.8
				c-0.2,0-0.4,0-0.6,0l-1.8,0v-1.1h4.3v1l-2,2.3l-0.7,0.8c0.4,0,0.6,0,0.7,0h2.1v1.2H162.1z M167.1,126.9h1.5l1.2,3.7l1.2-3.7h1.4
				l-1.8,5l-0.3,0.9c-0.1,0.3-0.2,0.5-0.3,0.7c-0.1,0.2-0.2,0.3-0.4,0.4c-0.1,0.1-0.3,0.2-0.5,0.2c-0.2,0.1-0.4,0.1-0.7,0.1
				c-0.3,0-0.5,0-0.8-0.1l-0.1-1.1c0.2,0,0.4,0.1,0.6,0.1c0.3,0,0.6-0.1,0.7-0.3c0.2-0.2,0.3-0.4,0.4-0.7L167.1,126.9z M173.3,132.1
				v-7.2h1.4v7.2H173.3z M176,132.1v-7.2h1.4v3.8l1.6-1.8h1.7l-1.8,1.9l1.9,3.3h-1.5l-1.3-2.3l-0.6,0.7v1.7H176z M184.6,130.4
				l1.4,0.2c-0.2,0.5-0.5,0.9-0.8,1.1c-0.4,0.3-0.9,0.4-1.4,0.4c-0.9,0-1.6-0.3-2-0.9c-0.3-0.5-0.5-1.1-0.5-1.8c0-0.9,0.2-1.5,0.7-2
				c0.4-0.5,1-0.7,1.7-0.7c0.8,0,1.4,0.3,1.8,0.8c0.4,0.5,0.7,1.3,0.6,2.3h-3.4c0,0.4,0.1,0.7,0.3,1c0.2,0.2,0.5,0.3,0.8,0.3
				c0.2,0,0.4-0.1,0.5-0.2C184.4,130.9,184.5,130.7,184.6,130.4z M184.7,129c0-0.4-0.1-0.7-0.3-0.9c-0.2-0.2-0.4-0.3-0.7-0.3
				c-0.3,0-0.5,0.1-0.7,0.3c-0.2,0.2-0.3,0.5-0.3,0.9H184.7z M188.5,132.1h-1.4v-5.2h1.3v0.7c0.2-0.3,0.4-0.6,0.6-0.7
				c0.2-0.1,0.4-0.2,0.6-0.2c0.3,0,0.6,0.1,0.9,0.3l-0.4,1.2c-0.2-0.1-0.4-0.2-0.6-0.2c-0.2,0-0.4,0.1-0.5,0.2
				c-0.1,0.1-0.2,0.3-0.3,0.6c-0.1,0.3-0.1,0.9-0.1,1.7V132.1z M190.5,132.1v-1.4h1.4v1.4H190.5z M193.2,132.1v-7.2h1.4v2.6
				c0.4-0.5,0.9-0.7,1.5-0.7c0.6,0,1.2,0.2,1.6,0.7c0.4,0.5,0.6,1.1,0.6,2c0,0.9-0.2,1.6-0.6,2c-0.4,0.5-0.9,0.7-1.5,0.7
				c-0.3,0-0.6-0.1-0.9-0.2c-0.3-0.1-0.5-0.4-0.7-0.7v0.8H193.2z M194.6,129.4c0,0.5,0.1,0.9,0.3,1.2c0.2,0.4,0.6,0.5,0.9,0.5
				c0.3,0,0.6-0.1,0.8-0.4c0.2-0.3,0.3-0.7,0.3-1.2c0-0.6-0.1-1-0.3-1.3c-0.2-0.3-0.5-0.4-0.8-0.4c-0.3,0-0.6,0.1-0.8,0.4
				C194.7,128.4,194.6,128.8,194.6,129.4z M199.4,126.2v-1.3h1.4v1.3H199.4z M199.4,132.1v-5.2h1.4v5.2H199.4z M201.7,132.1V131
				l1.9-2.2c0.3-0.4,0.6-0.6,0.7-0.8c-0.2,0-0.4,0-0.6,0l-1.8,0v-1.1h4.3v1l-2,2.3l-0.7,0.8c0.4,0,0.6,0,0.7,0h2.1v1.2H201.7z"/>
			<path class="st4" d="M93.8,128h-0.7v-1.7c0-1.6,1.3-2.9,2.9-2.9s2.9,1.3,2.9,2.9v1.7h-0.7v-1.7c0-1.2-1-2.2-2.2-2.2
				s-2.2,1-2.2,2.2V128L93.8,128z"/>
			<path class="st25" d="M92.3,127.7H99c0.9,0,1.7,0.8,1.7,1.7v4.3c0,0.9-0.8,1.7-1.7,1.7h-6.7c-0.9,0-1.7-0.8-1.7-1.7v-4.3
				C90.6,128.4,91.4,127.7,92.3,127.7z"/>
			<path class="st22" d="M99,125.3h-2.4v2.4H99V125.3z"/>
			<path class="st9" d="M206.6,61.8c11.8,4.6,25.2-2.1,28.5-14.7c2.5-9.6-2-20-10.8-24.6c-11.6-6-25.4-0.5-30,11.4
				c-3.3,8.7-0.7,18.6,6.5,24.5c-1.8,3.7-7.6,9.2-7.6,9.2C197.9,66.3,202.5,64.4,206.6,61.8L206.6,61.8z"/>
			<path class="st26" d="M209.4,30.3c0,0-4.6-0.1-5.1,0c-1.1,0-2.1,0.9-2.1,2c0,0,0,5.5,0,5.5"/>
			<path class="st26" d="M218.7,30.3c0,0,4.6-0.1,5.1,0c1.1,0,2.1,0.9,2.1,2c0,0,0,5.5,0,5.5"/>
			<path class="st26" d="M218.7,53.3c0,0,4.6,0.1,5.1,0c1.1,0,2.1-0.9,2.1-2c0,0,0-5.5,0-5.5"/>
			<path class="st26" d="M209.4,53.3c0,0-4.6,0.1-5.1,0c-1.1,0-2.1-0.9-2.1-2c0,0,0-5.5,0-5.5"/>
			<path class="st27" d="M209.2,46.8c0,0,4.8,6.5,10.8,0"/>
			<path class="st22" d="M208.2,36c0.7,0,1.3,0.6,1.3,1.3v1.4c0,0.7-0.6,1.3-1.3,1.3c-0.7,0-1.3-0.6-1.3-1.3v-1.4
				C206.9,36.6,207.5,36,208.2,36z"/>
			<path class="st28" d="M208.2,36.4c0.5,0,0.9,0.4,0.9,0.9v1.4c0,0.5-0.4,0.9-0.9,0.9c-0.5,0-0.9-0.4-0.9-0.9v-1.4
				C207.3,36.8,207.7,36.4,208.2,36.4z"/>
			<path class="st22" d="M220.8,39.6c-0.5,0-0.9-0.4-0.9-0.9v-1.4c0-0.5,0.4-0.9,0.9-0.9c0.5,0,0.9,0.4,0.9,0.9v1.4
				C221.7,39.2,221.3,39.6,220.8,39.6z"/>
			<path class="st22" d="M220.8,36.8c-0.3,0-0.5,0.2-0.5,0.5v1.4c0,0.3,0.2,0.5,0.5,0.5s0.5-0.2,0.5-0.5v-1.4
				C221.3,37,221.1,36.8,220.8,36.8z M220.8,36c0.7,0,1.3,0.6,1.3,1.3v1.4c0,0.7-0.6,1.3-1.3,1.3c-0.7,0-1.3-0.6-1.3-1.3v-1.4
				C219.5,36.6,220.1,36,220.8,36z"/>
			<path class="st26" d="M213,37.1l0,4.7c0,0.9,0.4,1.8,1.2,2.2c0.7,0.3,1.4,0.4,2.1,0.2"/>
			<path class="st9" d="M177.2,154.1c-11-3.4-22.6,2.8-26,13.9c-3.4,11.1,2.8,22.8,13.8,26.2c11,3.4,22.6-2.8,26-13.9
				c2.4-8-0.1-16.7-6.5-22.1c0-4.1,6.8-10.1,6.8-10.1L177.2,154.1L177.2,154.1z"/>
			<path class="st22" d="M182.6,170.6c-0.3,0-0.6-0.1-0.7-0.3c-2.5-3.4-6.5-5.3-10.7-5.1c-4.2,0.2-8,2.6-10.1,6.2
				c-0.2,0.4-0.8,0.5-1.2,0.3c-0.4-0.2-0.5-0.8-0.3-1.2c2.4-4.1,6.7-6.8,11.5-7.1c4.8-0.2,9.3,2,12.2,5.8c0.3,0.4,0.2,0.9-0.2,1.2
				C182.9,170.5,182.8,170.6,182.6,170.6L182.6,170.6z"/>
			<path class="st22" d="M173.6,161.6c-4.1-0.7-8.4,0.7-11.3,3.8c-0.3,0.3-0.9,0.4-1.2,0c-0.3-0.3-0.4-0.9,0-1.2
				c3.3-3.5,8.1-5.1,12.8-4.3"/>
			<path class="st22" d="M168,160.2c4.6-1.2,9.5,0,13.1,3.2c0.4,0.3,0.4,0.9,0.1,1.2c-0.3,0.4-0.9,0.4-1.2,0.1
				c-3.1-2.8-7.5-3.9-11.5-2.8"/>
			<path class="st22" d="M169.6,187.7c-0.2,0-0.4-0.1-0.6-0.2c-0.2-0.2-4.8-4.5-5-8.8c-0.3-4.4,3.1-8.3,7.5-8.6
				c4.4-0.2,8.1,3.3,8.3,7.8c0,0.5-0.3,0.9-0.8,0.9c-0.5,0-0.9-0.3-0.9-0.8c-0.1-3.5-3-6.2-6.5-6.1c-3.5,0.2-6.1,3.3-5.8,6.8
				c0.2,3.6,4.4,7.6,4.5,7.6c0.4,0.3,0.4,0.9,0.1,1.2C170,187.6,169.8,187.7,169.6,187.7L169.6,187.7z"/>
			<path class="st22" d="M175,187.4c-2.1,0.1-7-3.6-7.7-7.9c-0.2-1.5,0.1-3.1,1.1-4.3c0.8-1,1.9-1.6,3.2-1.7h0
				c1.2-0.1,2.4,0.4,3.3,1.2c1,0.9,1.5,2.1,1.6,3.4l0,0.6c0,1.3,1.1,2.4,2.4,2.4c1.3,0,2.4-1.1,2.4-2.4c0-0.1,0-0.1,0-0.2v-0.2
				c-0.3-5.4-4.4-9.6-9.3-9.7c-2.6,0-5,1-6.8,2.9c-3.6,3.8-3.7,9.7-0.2,13.6c0.3,0.4,0.3,0.9-0.1,1.2c-0.4,0.3-0.9,0.3-1.2-0.1
				c-4-4.6-3.9-11.5,0.3-15.9c2.1-2.2,5-3.5,8.1-3.4c5.8,0.1,10.7,5.1,11,11.3v0.2c0.2,2.3-1.5,4.3-3.8,4.5
				c-2.3,0.2-4.2-1.5-4.4-3.8c0-0.1,0-0.2,0-0.2l0-0.6c0-0.8-0.4-1.6-1-2.2c-0.6-0.5-1.3-0.8-2.1-0.7h0c-0.8,0.1-1.5,0.4-1.9,1
				c-0.6,0.8-0.9,1.9-0.7,3c0.6,3.6,4.8,6.6,5.9,6.5c0.5,0,0.9,0.4,0.9,0.8C175.8,187,175.5,187.4,175,187.4L175,187.4z"/>
			<path class="st22" d="M178.1,185.6c-3.1,0.2-7-3.4-7.2-7.8c0-0.5,0.3-0.9,0.8-0.9c0.5,0,0.9,0.3,0.9,0.8c0.2,3.4,3.2,6.3,5.4,6.2
				c0.5,0,0.9,0.3,0.9,0.8C178.9,185.1,178.6,185.6,178.1,185.6L178.1,185.6z"/>
			<path class="st29" d="M73.9,37.6c2.5,0,4.6-2.1,4.6-4.6c0-2.5-2.1-4.6-4.6-4.6s-4.6,2.1-4.6,4.6C69.3,35.5,71.4,37.6,73.9,37.6z"
				/>
			<path class="st29" d="M83.5,30.9c1.8,0,3.3-1.5,3.3-3.4c0-1.9-1.5-3.4-3.3-3.4c-1.8,0-3.3,1.5-3.3,3.4
				C80.2,29.4,81.7,30.9,83.5,30.9z"/>
			<path class="st30" d="M237,141c0,0,2-1.5,3.9-1.8"/>
			<path class="st30" d="M238,142c0,0,2-1.5,3.9-1.8"/>
			<path class="st31" d="M234.6,91.9c0,0-3.4,1.4-5,2.4c0,0,1.6,0.3,1.1,3L234.6,91.9L234.6,91.9z"/>
			<path class="st32" d="M229.6,94.3c0,0,1.2,1.1,1.1,3C230.7,97.3,231.7,94.6,229.6,94.3z"/>
			<path class="st33" d="M194.1,68.7c0,0-12.7,13.6,0.5,29.4"/>
			<path class="st33" d="M200.1,105.5c0,0,27,20.3,17.2,45c-0.6,1.4-1.3,2.8-2,4.1c-2.5,4.3-8,12.9-13.7,13.3
				c-2.7,0.2-5.2-2-4.9-4.8c0.1-0.9,0.6-1.9,1.7-2.8c3.3-2.5,7.1,2.8,7.1,2.8s2.1,3.5,3.1,7.7c1.4,6-1.9,12.3-7.8,14
				c-2.5,0.7-5.5,0.7-8.8-1.3"/>
			<rect x="132.5" y="71.7" class="st34" width="35" height="35"/>
		</g>
	</g>
</g>
</svg>
